<?xml version="1.0" standalone="no"?><!DOCTYPE svg PUBLIC "-//W3C//DTD SVG 1.1//EN" "http://www.w3.org/Graphics/SVG/1.1/DTD/svg11.dtd"><svg t="1614947485247" class="icon" viewBox="0 0 1024 1024" version="1.1" xmlns="http://www.w3.org/2000/svg" p-id="2153" xmlns:xlink="http://www.w3.org/1999/xlink" width="200" height="200"><defs><style type="text/css"></style></defs><path d="M459.492711 288.828921a144.41446 144.41446 0 1 1 144.41446-144.414461 145.691548 145.691548 0 0 1-144.41446 144.414461z m0-210.046415a65.58018 65.58018 0 1 0 65.580181 65.58018 64.99341 64.99341 0 0 0-65.580181-65.58018zM144.431719 945.217494a144.41446 144.41446 0 1 1 144.397202-144.431718 145.691548 145.691548 0 0 1-144.41446 144.41446z m0-210.046415a65.58018 65.58018 0 1 0 65.58018 65.580181 64.99341 64.99341 0 0 0-65.58018-65.545665z m551.356737 288.828921a144.41446 144.41446 0 1 1 144.41446-144.41446 145.691548 145.691548 0 0 1-144.41446 144.41446z m0-210.046414a65.58018 65.58018 0 1 0 65.58018 65.58018 64.99341 64.99341 0 0 0-65.58018-65.58018z m183.797084-26.249331a144.41446 144.41446 0 1 1 144.41446-144.41446 145.691548 145.691548 0 0 1-144.41446 144.397203z m0-210.046414a65.58018 65.58018 0 1 0 65.58018 65.58018 64.99341 64.99341 0 0 0-65.58018-65.597438zM433.191607 761.437667a223.179708 223.179708 0 1 1 223.214225-223.179708A222.989871 222.989871 0 0 1 433.191607 761.437667z m0-367.594168a144.41446 144.41446 0 1 0 144.414461 144.41446 143.983012 143.983012 0 0 0-144.414461-144.397202z" p-id="2154"></path><path d="M406.976793 223.196966h78.765248v157.530497h-78.765248z m199.985034 276.817393l204.8 81.923452-29.338502 73.121901-204.8-81.923452z m-316.959366 100.872672l55.708637 55.69138-115.110474 115.110474-55.708638-55.691379z m267.256493 27.198517l121.375107 151.766344-61.524564 49.185135-121.375107-151.697312z" p-id="2155"></path></svg>