<?xml version="1.0" standalone="no"?><!DOCTYPE svg PUBLIC "-//W3C//DTD SVG 1.1//EN" "http://www.w3.org/Graphics/SVG/1.1/DTD/svg11.dtd"><svg t="1618668727218" class="icon" viewBox="0 0 1077 1024" version="1.1" xmlns="http://www.w3.org/2000/svg" p-id="4791" width="33.65625" height="32" xmlns:xlink="http://www.w3.org/1999/xlink"><defs><style type="text/css"></style></defs><path d="M380.227368 970.051368h2.317474l1.832421 0.053895h414.181053c44.193684 0 80.734316-39.828211 80.734316-89.303579v-137.000421c0-49.421474-36.486737-89.249684-80.734316-89.249684H536.845474V435.954526c0-48.559158-40.097684-88.171789-89.465263-88.171789-49.367579 0-89.465263 39.612632-89.465264 88.171789v258.048l-23.013052-23.013052-7.27579-7.221895a88.710737 88.710737 0 0 0-125.197473 0.808421c-34.654316 34.654316-35.247158 90.866526-1.347369 124.712421l162.223158 174.241684a20.749474 20.749474 0 0 0 15.144421 6.575158l1.778526-0.053895z" fill="#15BDCF" fill-opacity=".246" p-id="4792"></path><path d="M641.994105 496.370526c0-13.904842 11.317895-25.222737 25.276632-25.222737h326.386526V90.920421H84.237474v380.227368h146.593684a25.276632 25.276632 0 1 1 0 50.553264H71.518316a37.888 37.888 0 0 1-37.888-37.888V78.309053c0-20.911158 16.976842-37.888 37.888-37.888h934.750316c20.911158 0 37.888 16.976842 37.888 37.888v405.504a37.888 37.888 0 0 1-37.888 37.888H667.216842a25.276632 25.276632 0 0 1-25.330526-25.330527z" fill="#000000" fill-opacity=".65" p-id="4793"></path></svg>